<?xml version="1.0" encoding="utf-8"?>
<!-- Generator: Adobe Illustrator 24.0.1, SVG Export Plug-In . SVG Version: 6.00 Build 0)  -->
<svg version="1.1" id="Layer_1" xmlns="http://www.w3.org/2000/svg" xmlns:xlink="http://www.w3.org/1999/xlink" x="0px" y="0px"
	 viewBox="0 0 1246 771.4" style="enable-background:new 0 0 1246 771.4;" xml:space="preserve">
<style type="text/css">
	.st0{fill:url(#SVGID_1_);}
	.st1{fill:#FFFFFF;}
	.st2{fill:#CCCCCC;}
	.st3{fill:#E5E5E5;}
	.st4{opacity:0.45;fill:#B3B3B3;}
</style>
<g>
	<g>
		<g>
			<g>
				<linearGradient id="SVGID_1_" gradientUnits="userSpaceOnUse" x1="833.2648" y1="-130.4447" x2="408.679" y2="905.6368">
					<stop  offset="0" style="stop-color:#323232"/>
					<stop  offset="1" style="stop-color:#1C1C1C"/>
				</linearGradient>
				<path class="st0" d="M1146.3,718.6H104.5V40.4c0-15.1,12.3-27.4,27.4-27.4h986.9c15.1,0,27.4,12.3,27.4,27.4V718.6z"/>
				<path class="st1" d="M1146.3,718.6H104.5V40.4c0-15.1,12.3-27.4,27.4-27.4h986.9c15.1,0,27.4,12.3,27.4,27.4V718.6z"/>
				<g>
					<defs>
						<path id="SVGID_2_" d="M128.6,681.5V59.7c0-1.8,1.5-3.3,3.3-3.3h986.9c1.8,0,3.3,1.5,3.3,3.3v621.8H128.6z"/>
					</defs>
					<clipPath id="SVGID_3_">
						<use xlink:href="#SVGID_2_"  style="overflow:visible;"/>
					</clipPath>
				</g>
			</g>
			<g>
				<path class="st2" d="M1230,725.4v2.5c0,5.6-3.5,10.8-8.9,15.3c-10.8,9.1-28.8,15.2-39.9,15.2H64.9c-11.1,0-29.1-6.1-39.9-15.2
					c-5.4-4.5-8.9-9.7-8.9-15.3v-2.5H1230z"/>
				<path class="st3" d="M1230,723.3v4.6c0,5.6-3.5,10.8-8.9,15.3H24.9c-5.4-4.5-8.9-9.7-8.9-15.3v-4.6c0-2.5,2.1-4.6,4.6-4.6
					h1204.7C1227.9,718.6,1230,720.7,1230,723.3z"/>
			</g>
			<g>
				<path class="st4" d="M923.9,718.6h-10.1H812.8c0.6,6.6,6.1,11.9,12.9,11.9h154.6c6.8,0,12.3-5.2,12.9-11.9H923.9z"/>
				<g>
					<path class="st1" d="M980.2,730.9H825.6c-7,0-12.7-5.3-13.3-12.3l0.8-0.1c0.6,6.6,5.9,11.5,12.5,11.5h154.6
						c6.5,0,11.9-4.9,12.5-11.5l0.8,0.1C992.9,725.6,987.2,730.9,980.2,730.9z"/>
				</g>
			</g>
		</g>
		<path class="st3" d="M1118.9,15.4c13.8,0,25,11.2,25,25v675.8h-1037V40.4c0-13.8,11.2-25,25-25H1118.9 M1118.9,13H131.9
			c-15.1,0-27.4,12.3-27.4,27.4v678.2h1041.8V40.4C1146.3,25.3,1134,13,1118.9,13L1118.9,13z"/>
		<path class="st1" d="M635.9,35.3c0,4-3.3,7.3-7.3,7.3c-4,0-7.3-3.3-7.3-7.3c0-4,3.3-7.3,7.3-7.3C632.6,28,635.9,31.2,635.9,35.3z"
			/>
	</g>
</g>
</svg>
